<svg width="64" height="64" viewBox="0 0 64 64" fill="#545454" xmlns="http://www.w3.org/2000/svg">
<path d="M53.3333 45.7867L44.3467 36.7733C46.0533 37.36 47.6267 38.0533 49.0667 38.8C51.6533 40.16 53.28 42.8533 53.3333 45.7867ZM56.5067 56.5067L52.7467 60.2667L45.7867 53.3333H10.6667V45.92C10.6667 42.9333 12.2933 40.1867 14.96 38.8267C18.4 37.0667 22.6133 35.5733 27.4133 34.96L3.70667 11.2533L7.46667 7.49333L56.5067 56.5067ZM40.4533 48L32.4533 40H32C25.68 40 20.56 41.9467 17.3867 43.5733C16.5333 44 16 44.9067 16 45.92V48H40.4533ZM32 16C34.9333 16 37.3333 18.4 37.3333 21.3333C37.3333 23.6267 35.8933 25.5733 33.8667 26.32L37.8133 30.2667C39.1482 29.4028 40.273 28.2513 41.1053 26.8966C41.9377 25.5419 42.4566 24.0182 42.6241 22.437C42.7915 20.8558 42.6033 19.2572 42.0731 17.7582C41.5429 16.2592 40.6843 14.8977 39.56 13.7734C38.4356 12.6491 37.0742 11.7904 35.5751 11.2602C34.0761 10.7301 32.4775 10.5418 30.8963 10.7093C29.3152 10.8767 27.7915 11.3956 26.4367 12.228C25.082 13.0604 23.9305 14.1851 23.0667 15.52L27.0133 19.4667C27.3899 18.448 28.07 17.5694 28.9617 16.9494C29.8535 16.3295 30.9139 15.9981 32 16Z" />
</svg>
