<svg width="64" height="64" viewBox="0 0 64 64" xmlns="http://www.w3.org/2000/svg">
<path d="M13.3333 8C10.3733 8 8 10.3733 8 13.3333V50.6667C8 52.0812 8.5619 53.4377 9.5621 54.4379C10.5623 55.4381 11.9188 56 13.3333 56H50.6667C52.0812 56 53.4377 55.4381 54.4379 54.4379C55.4381 53.4377 56 52.0812 56 50.6667V32H50.6667V50.6667H13.3333V13.3333H32V8H13.3333ZM47.4133 10.6667C46.9334 10.6707 46.4741 10.8621 46.1333 11.2L42.88 14.4267L49.5467 21.0933L52.8 17.8667C53.4933 17.1733 53.4933 16 52.8 15.3333L48.6667 11.2C48.32 10.8533 47.8667 10.6667 47.4133 10.6667ZM40.9867 16.32L21.3333 36V42.6667H28L47.6533 22.9867L40.9867 16.32Z" fill="#545454"/>
</svg>
