<svg width="64" height="64" viewBox="0 0 64 64" xmlns="http://www.w3.org/2000/svg">
<path d="M22.2836 52.0298L21.93 52.3833L17.79 48.2433L18.1436 47.8898L14.0036 43.7498L13.65 44.1033L9.51 39.9633L9.86355 39.6098L8.14711 37.8933L9.68022 36.3602L9.32667 36.0067L13.1 32.2333L13.4536 32.5869L14.9861 31.0543L16.8859 32.9597L17.24 32.6067L21.7467 37.1267L21.3926 37.4797L23.6459 39.7397L23.9997 40.0945L24.3537 39.74L26.0004 38.0917L25.6467 37.7383L28.94 34.4417L29.2937 34.795L32.5871 31.4984L32.2333 31.145L35.5267 27.8483L35.8804 28.2017L39.1737 24.905L38.82 24.5517L42.1133 21.255L42.4671 21.6084L45.7604 18.3117L45.4067 17.9583L48.7 14.6617L49.0537 15.015L50.3469 13.7206L51.8798 15.2536L52.2333 14.9L56.0067 18.6733L55.6531 19.0269L57.1862 20.56L55.8451 21.9011L56.1987 22.2547L52.8093 25.644L52.4558 25.2904L49.0664 28.6798L49.42 29.0333L46.0307 32.4227L45.6771 32.0691L42.2878 35.4585L42.6413 35.812L39.252 39.2013L38.8984 38.8478L35.5091 42.2371L35.8627 42.5907L32.4733 45.98L32.1198 45.6265L28.7304 49.0158L29.084 49.3693L25.6947 52.7587L25.3411 52.4051L24 53.7462L22.2836 52.0298Z" stroke="#545454" stroke-dasharray="5 5"/>
</svg>
