<svg fill="#545454" viewBox="0 0 64 64" xmlns="http://www.w3.org/2000/svg">
<path d="M32 51.2C25.3334 51.2 19.44 47.7867 16 42.6667C16.08 37.3333 26.6667 34.4 32 34.4C37.3334 34.4 47.92 37.3333 48 42.6667C46.2371 45.2918 43.8557 47.4431 41.0655 48.9311C38.2754 50.4192 35.1622 51.1984 32 51.2ZM32 13.3333C34.1218 13.3333 36.1566 14.1762 37.6569 15.6765C39.1572 17.1768 40 19.2116 40 21.3333C40 23.4551 39.1572 25.4899 37.6569 26.9902C36.1566 28.4905 34.1218 29.3333 32 29.3333C29.8783 29.3333 27.8435 28.4905 26.3432 26.9902C24.8429 25.4899 24 23.4551 24 21.3333C24 19.2116 24.8429 17.1768 26.3432 15.6765C27.8435 14.1762 29.8783 13.3333 32 13.3333ZM32 5.33333C28.4981 5.33333 25.0305 6.02308 21.7951 7.36321C18.5598 8.70333 15.6201 10.6676 13.1439 13.1438C8.14289 18.1448 5.33337 24.9276 5.33337 32C5.33337 39.0724 8.14289 45.8552 13.1439 50.8562C15.6201 53.3324 18.5598 55.2967 21.7951 56.6368C25.0305 57.9769 28.4981 58.6667 32 58.6667C39.0725 58.6667 45.8553 55.8571 50.8562 50.8562C55.8572 45.8552 58.6667 39.0724 58.6667 32C58.6667 17.2533 46.6667 5.33333 32 5.33333Z"/>
</svg>
