<svg width="54" height="54" fill="#545454" viewBox="0 0 54 54" xmlns="http://www.w3.org/2000/svg">
<path d="M27 46.2C20.3334 46.2 14.44 42.7867 11 37.6667C11.08 32.3333 21.6667 29.4 27 29.4C32.3334 29.4 42.92 32.3333 43 37.6667C41.2371 40.2918 38.8557 42.4431 36.0655 43.9311C33.2754 45.4192 30.1622 46.1984 27 46.2ZM27 8.33333C29.1218 8.33333 31.1566 9.17618 32.6569 10.6765C34.1572 12.1768 35 14.2116 35 16.3333C35 18.4551 34.1572 20.4899 32.6569 21.9902C31.1566 23.4905 29.1218 24.3333 27 24.3333C24.8783 24.3333 22.8435 23.4905 21.3432 21.9902C19.8429 20.4899 19 18.4551 19 16.3333C19 14.2116 19.8429 12.1768 21.3432 10.6765C22.8435 9.17618 24.8783 8.33333 27 8.33333ZM27 0.333328C23.4981 0.333328 20.0305 1.02308 16.7951 2.36321C13.5598 3.70333 10.6201 5.66759 8.14386 8.14381C3.14289 13.1448 0.333374 19.9276 0.333374 27C0.333374 34.0724 3.14289 40.8552 8.14386 45.8562C10.6201 48.3324 13.5598 50.2967 16.7951 51.6368C20.0305 52.9769 23.4981 53.6667 27 53.6667C34.0725 53.6667 40.8553 50.8571 45.8562 45.8562C50.8572 40.8552 53.6667 34.0724 53.6667 27C53.6667 12.2533 41.6667 0.333328 27 0.333328Z"/>
</svg>
